<?xml version="1.0" standalone="no"?>
<!DOCTYPE svg PUBLIC "-//W3C//DTD SVG 20010904//EN"
 "http://www.w3.org/TR/2001/REC-SVG-20010904/DTD/svg10.dtd">
<svg version="1.0" xmlns="http://www.w3.org/2000/svg"
 width="512.000000pt" height="512.000000pt" viewBox="0 0 512.000000 512.000000"
 preserveAspectRatio="xMidYMid meet">

<g transform="translate(0.000000,512.000000) scale(0.100000,-0.100000)"
fill="#000000" stroke="none">
<path d="M1405 3854 c-104 -37 -164 -128 -173 -260 l-5 -82 -246 -4 c-279 -5
-308 -11 -385 -79 -25 -22 -57 -65 -73 -97 l-28 -57 0 -730 0 -730 24 -49 c31
-63 84 -116 147 -147 l49 -24 1087 -3 1086 -2 4 -88 c3 -78 7 -95 33 -138 19
-30 49 -60 79 -79 43 -26 59 -30 121 -30 62 0 78 4 121 30 30 19 60 49 79 79
30 49 30 51 33 213 2 105 7 163 14 163 16 0 219 -104 294 -151 143 -90 202
-138 230 -190 72 -132 238 -156 344 -50 63 64 70 94 70 318 l0 190 42 7 c96
16 197 99 246 204 22 48 27 71 26 142 0 72 -4 95 -28 146 -15 35 -48 81 -74
107 -48 47 -135 97 -168 97 -41 0 -42 9 -46 221 l-3 206 -30 48 c-91 148 -310
137 -383 -19 -18 -37 -40 -56 -149 -129 -155 -103 -262 -161 -410 -221 -61
-25 -114 -46 -117 -46 -3 0 -6 143 -6 318 0 367 -2 380 -81 466 -85 93 -110
100 -405 104 l-252 4 -4 86 c-6 122 -49 194 -143 245 -39 21 -50 22 -460 24
-346 2 -427 -1 -460 -13z m854 -158 c36 -19 51 -55 51 -126 l0 -60 -461 0
-461 0 4 71 c3 65 6 74 36 100 l32 29 386 0 c314 0 390 -3 413 -14z m719 -369
c56 -31 72 -69 72 -175 l0 -94 -59 -71 c-63 -76 -128 -131 -199 -166 -41 -21
-179 -61 -209 -61 -10 0 -13 21 -13 87 0 75 -3 90 -22 110 -21 22 -28 23 -172
23 -140 0 -151 -1 -173 -22 -21 -19 -23 -30 -23 -110 l0 -88 -325 0 -325 0 0
69 c0 78 -14 127 -40 141 -10 6 -86 10 -169 10 l-150 0 -20 -26 c-17 -22 -21
-41 -21 -110 l0 -84 -42 6 c-63 9 -156 42 -208 72 -55 32 -136 107 -190 177
-39 50 -40 54 -40 129 0 114 36 178 112 196 18 5 517 7 1108 7 1014 -2 1077
-3 1108 -20z m1156 -369 c14 -20 16 -107 16 -746 l0 -723 -25 -24 c-29 -30
-49 -31 -75 -5 -20 20 -20 33 -20 752 0 667 1 733 17 750 23 25 68 23 87 -4z
m-2764 -278 l0 -140 -40 0 -40 0 0 140 0 140 40 0 40 0 0 -140z m1040 0 l0
-140 -35 0 -35 0 0 140 0 140 35 0 35 0 0 -140z m-1567 -2 c74 -37 153 -61
240 -73 l47 -6 0 -83 c0 -69 4 -88 21 -110 l20 -26 150 0 c83 0 159 4 169 10
26 14 40 63 40 141 l0 69 325 0 325 0 0 -87 c0 -75 3 -90 22 -110 21 -22 28
-23 172 -23 140 0 151 1 173 22 21 19 23 30 23 109 l0 88 48 6 c158 22 300 85
400 178 l32 31 0 -121 c0 -138 11 -123 -108 -148 -125 -26 -185 -71 -218 -162
-16 -47 -19 -281 -3 -337 13 -48 76 -117 129 -141 l40 -18 0 -69 0 -68 -1062
0 c-992 0 -1065 1 -1097 18 -19 9 -44 30 -55 45 -20 28 -21 41 -24 513 l-3
485 61 -49 c33 -26 93 -65 133 -84z m3027 -469 l0 -561 -27 18 c-170 112 -373
215 -536 274 l-97 35 0 236 0 236 63 23 c165 59 380 165 517 255 36 24 68 44
73 44 4 1 7 -252 7 -560z m539 142 c37 -37 61 -95 61 -148 0 -51 -47 -131 -94
-158 -24 -14 -48 -25 -54 -25 -9 0 -12 53 -12 194 l0 195 32 -11 c17 -6 47
-27 67 -47z m-1359 -142 l0 -191 -23 6 c-12 3 -46 10 -75 16 -75 17 -82 31
-82 171 0 140 7 154 90 174 98 24 90 40 90 -176z m84 -379 l66 -21 0 -175 c0
-172 0 -175 -25 -199 -13 -14 -36 -25 -50 -25 -14 0 -37 11 -50 25 -25 24 -25
25 -25 220 0 108 4 195 9 195 5 0 39 -9 75 -20z"/>
</g>
</svg>
